<svg xmlns="http://www.w3.org/2000/svg" viewBox="0 0 512 512" id="CheckLists"><path fill-rule="evenodd" d="M120.989 8h261.158v50.852c0 11.287 9.172 20.46 20.46 20.46h50.852v362.24c0 4.913-4.007 8.921-8.921 8.921h-28.606V120.534c0-6.699-2.562-12.884-7.299-17.621l-50.086-50.086c-4.737-4.737-10.922-7.299-17.621-7.299H112.068V16.921c0-4.913 4.008-8.921 8.921-8.921zM344.62 62.301v50.078a4.469 4.469 0 0 0 4.46 4.46h50.078a8.967 8.967 0 0 0-1.839-2.613L347.233 64.14a8.948 8.948 0 0 0-2.613-1.839zm-277.158-.774c-4.914 0-8.921 4.007-8.921 8.921v424.631c0 4.913 4.007 8.921 8.921 8.921h323.549c4.913 0 8.921-4.008 8.921-8.921v-362.24H349.08c-11.288 0-20.46-9.172-20.46-20.46V61.527H67.462zm167.467 116.606h104.492a8 8 0 0 0 0-16H234.929a8 8 0 0 0 0 16zM131.427 363.605c-5.611 0-10.707 2.29-14.396 5.979-3.688 3.689-5.979 8.785-5.979 14.396v37.501c0 5.611 2.29 10.707 5.979 14.396s8.785 5.979 14.396 5.979h37.501c5.611 0 10.707-2.29 14.396-5.979s5.979-8.785 5.979-14.396v-23.548l22.097-20.054a7.985 7.985 0 0 0 .531-11.281 7.985 7.985 0 0 0-11.281-.531l-12.452 11.301a20.451 20.451 0 0 0-4.874-7.783c-3.689-3.688-8.785-5.979-14.396-5.979h-37.501v-.001zm37.501 16h-37.501a4.358 4.358 0 0 0-3.083 1.291 4.358 4.358 0 0 0-1.291 3.084v37.501c0 1.195.495 2.287 1.291 3.084a4.361 4.361 0 0 0 3.083 1.291h37.501a4.358 4.358 0 0 0 3.083-1.291 4.362 4.362 0 0 0 1.291-3.084v-9.028l-5.8 5.264-.044.045a8 8 0 0 1-11.313 0l-18.208-18.208a8 8 0 1 1 11.313-11.313l12.828 12.828 11.224-10.186v-6.904a4.362 4.362 0 0 0-1.291-3.084 4.357 4.357 0 0 0-3.083-1.29zm-37.501-226.362c-5.611 0-10.707 2.29-14.396 5.979-3.688 3.689-5.979 8.785-5.979 14.396v37.501c0 5.611 2.29 10.707 5.979 14.396s8.785 5.979 14.396 5.979h37.501c5.611 0 10.707-2.29 14.396-5.979s5.979-8.785 5.979-14.396V187.57l22.097-20.054a7.985 7.985 0 0 0 .531-11.281 7.985 7.985 0 0 0-11.281-.531l-12.452 11.301a20.451 20.451 0 0 0-4.874-7.783c-3.689-3.688-8.785-5.979-14.396-5.979h-37.501zm37.501 16h-37.501a4.358 4.358 0 0 0-3.083 1.291 4.358 4.358 0 0 0-1.291 3.084v37.501c0 1.195.495 2.287 1.291 3.084a4.361 4.361 0 0 0 3.083 1.291h37.501a4.358 4.358 0 0 0 3.083-1.291 4.362 4.362 0 0 0 1.291-3.084v-9.028l-5.8 5.264-.044.045a8 8 0 0 1-11.313 0l-18.208-18.208a8 8 0 1 1 11.313-11.313l12.828 12.828 11.224-10.186v-6.904a4.362 4.362 0 0 0-1.291-3.084 4.361 4.361 0 0 0-3.083-1.29zm-37.501 89.181c-5.611 0-10.707 2.29-14.396 5.979-3.688 3.689-5.979 8.785-5.979 14.396V316.3c0 5.611 2.29 10.707 5.979 14.396s8.785 5.979 14.396 5.979h37.501c5.611 0 10.707-2.29 14.396-5.979s5.979-8.785 5.979-14.396v-23.548l22.097-20.054a7.985 7.985 0 0 0 .531-11.281 7.985 7.985 0 0 0-11.281-.531l-12.452 11.301a20.451 20.451 0 0 0-4.874-7.783c-3.689-3.688-8.785-5.979-14.396-5.979h-37.501v-.001zm37.501 16h-37.501a4.358 4.358 0 0 0-3.083 1.291 4.357 4.357 0 0 0-1.291 3.083v37.501c0 1.195.495 2.287 1.291 3.084a4.361 4.361 0 0 0 3.083 1.291h37.501a4.358 4.358 0 0 0 3.083-1.291 4.362 4.362 0 0 0 1.291-3.084v-9.028l-5.8 5.264-.044.045a8 8 0 0 1-11.313 0l-18.208-18.207a8 8 0 1 1 11.313-11.313l12.828 12.828 11.224-10.186v-6.904a4.358 4.358 0 0 0-1.291-3.083 4.358 4.358 0 0 0-3.083-1.291zm66.001 114.071h104.492a8 8 0 0 0 0-16H234.929a8 8 0 0 0 0 16zm0 44.47h104.492a8 8 0 0 0 0-16H234.929a8 8 0 0 0 0 16zm0-149.651h104.492a8 8 0 0 0 0-16H234.929a8 8 0 0 0 0 16zm0 44.47h104.492a8 8 0 0 0 0-16H234.929a8 8 0 0 0 0 16zm0-105.181h104.492a8 8 0 0 0 0-16H234.929a8 8 0 0 0 0 16zM398.147 8.774v50.078a4.469 4.469 0 0 0 4.46 4.46h50.078a8.967 8.967 0 0 0-1.839-2.613L400.76 10.613a8.967 8.967 0 0 0-2.613-1.839z" clip-rule="evenodd" fill="#020940" class="color000000 svgShape"></path></svg>